<?xml version="1.0" standalone="no"?>
<!DOCTYPE svg PUBLIC "-//W3C//DTD SVG 20010904//EN"
 "http://www.w3.org/TR/2001/REC-SVG-20010904/DTD/svg10.dtd">
<svg version="1.0" xmlns="http://www.w3.org/2000/svg"
 width="1223.000000pt" height="601.000000pt" viewBox="0 0 1223.000000 601.000000"
 preserveAspectRatio="xMidYMid meet">
<metadata>
Created by potrace 1.16, written by Peter Selinger 2001-2019
</metadata>
<g transform="translate(0.000000,601.000000) scale(0.100000,-0.100000)"
fill="#000000" stroke="none">
<path d="M12164 5358 c-33 -57 -143 -241 -244 -410 l-183 -308 -743 0 -742 0
-253 -437 c-139 -241 -297 -516 -352 -610 l-99 -173 -718 0 -719 0 -34 58
c-19 31 -122 210 -229 397 -108 187 -237 411 -287 498 -50 88 -91 163 -91 168
0 13 -60 118 -71 124 -5 3 -20 0 -34 -7 l-25 -14 65 -112 c36 -61 65 -116 65
-121 0 -5 131 -237 291 -516 l291 -506 -291 -503 c-160 -277 -291 -507 -291
-511 0 -4 -23 -48 -51 -96 l-51 -89 -696 0 -697 1 -96 167 c-53 92 -212 368
-355 615 l-258 447 -726 0 -725 0 -180 313 c-98 171 -255 444 -348 605 l-169
292 -27 -16 -28 -17 110 -191 c60 -105 179 -312 265 -461 85 -148 191 -332
234 -408 46 -78 78 -145 76 -155 -3 -9 -104 -188 -225 -397 -120 -209 -277
-480 -348 -602 l-128 -223 -697 0 -697 0 -188 328 c-424 737 -517 897 -525
905 -6 7 -40 -4 -58 -18 -1 -1 158 -280 354 -620 203 -354 354 -625 351 -635
-4 -15 -658 -1119 -679 -1147 -7 -8 0 -17 21 -27 l30 -16 207 348 c114 191
272 456 352 589 l145 243 691 0 691 0 220 -381 c121 -210 285 -495 365 -633
l145 -251 735 -3 735 -3 240 -417 241 -417 37 -3 c20 -2 37 -1 37 1 0 2 -39
71 -86 153 -357 618 -424 735 -424 743 0 9 167 301 591 1031 l107 185 701 3
701 2 20 -32 c12 -18 35 -62 52 -98 17 -36 80 -150 141 -255 60 -104 153 -264
205 -355 53 -91 135 -233 184 -317 48 -83 88 -157 88 -164 0 -10 -115 -212
-467 -819 l-43 -75 26 -3 c14 -2 31 -1 38 1 7 3 125 199 262 436 l249 431 679
-2 680 -3 29 -50 c33 -57 294 -508 401 -692 l70 -123 39 0 c38 0 39 1 25 23
-8 12 -26 42 -40 67 -15 25 -123 213 -242 418 -119 206 -216 377 -216 382 0 8
67 125 465 813 l230 397 700 0 700 0 106 -183 c58 -100 184 -318 280 -484
l174 -301 3 59 3 60 -232 402 c-128 221 -237 410 -243 420 -8 12 -8 20 0 25 6
4 97 158 204 342 106 184 210 365 231 402 34 58 39 74 39 130 -1 61 -1 62 -16
38 -8 -14 -122 -209 -252 -435 l-237 -410 -716 -3 -717 -2 -64 112 c-35 62
-191 332 -346 600 -155 268 -282 492 -282 498 0 6 49 95 108 198 60 103 216
373 347 600 l238 412 716 0 716 -1 230 -400 c127 -220 240 -417 252 -437 l22
-37 1 64 0 63 -212 367 c-116 201 -216 374 -222 383 -7 13 -2 30 26 75 19 32
119 199 222 372 l187 313 -3 60 -3 60 -61 -104z m-6862 -2130 c42 -73 199
-344 348 -603 150 -258 273 -475 273 -481 0 -6 -61 -116 -135 -245 -75 -129
-218 -376 -318 -549 -100 -173 -198 -343 -218 -378 l-36 -62 -701 0 -701 0
-347 599 c-191 329 -349 606 -353 614 -3 10 38 90 104 204 60 103 211 366 337
583 131 229 240 407 258 423 l31 27 691 0 691 0 76 -132z m4320 -36 c53 -92
209 -363 348 -602 186 -321 249 -439 242 -450 -5 -8 -71 -123 -147 -255 -76
-132 -230 -397 -341 -590 l-203 -350 -693 -2 -693 -2 -69 122 c-38 67 -184
319 -324 561 -139 241 -264 464 -278 494 l-25 56 22 51 c17 41 303 541 596
1043 l54 92 707 0 707 0 97 -168z"/>
<path d="M12062 367 c-89 -155 -174 -301 -188 -324 l-25 -43 38 0 38 0 153
265 153 265 -3 59 -3 60 -163 -282z"/>
</g>
</svg>
