<?xml version="1.0" standalone="no"?>
<!DOCTYPE svg PUBLIC "-//W3C//DTD SVG 20010904//EN"
 "http://www.w3.org/TR/2001/REC-SVG-20010904/DTD/svg10.dtd">
<svg version="1.0" xmlns="http://www.w3.org/2000/svg"
 width="1460.000000pt" height="908.000000pt" viewBox="0 0 1460.000000 908.000000"
 preserveAspectRatio="xMidYMid meet">
<metadata>
Created by potrace 1.16, written by Peter Selinger 2001-2019
</metadata>
<g transform="translate(0.000000,908.000000) scale(0.100000,-0.100000)"
fill="#000000" stroke="none">
<path d="M92 8906 c-78 -137 -93 -170 -90 -200 3 -35 9 -26 116 158 61 106
112 196 112 200 0 3 -10 6 -22 6 -19 -1 -39 -30 -116 -164z"/>
<path d="M1308 8938 c43 -73 136 -233 206 -355 l128 -222 -193 -333 c-106
-183 -208 -361 -228 -395 l-36 -63 -455 0 -455 0 -135 235 c-128 223 -135 233
-138 197 -3 -32 13 -66 117 -246 104 -181 119 -212 109 -230 -6 -12 -60 -106
-120 -209 -95 -164 -109 -193 -106 -227 3 -37 8 -29 139 198 l136 237 455 3
455 2 227 -391 c124 -215 226 -395 226 -401 0 -10 -58 -113 -308 -543 l-127
-220 -470 -2 -470 -3 -108 188 c-59 103 -118 205 -132 227 l-24 40 -1 -40 c0
-34 20 -75 120 -248 66 -114 120 -211 120 -215 0 -5 -54 -102 -121 -216 -104
-181 -120 -213 -117 -246 3 -37 10 -26 148 213 l145 252 459 0 458 0 220 -380
c121 -209 220 -384 220 -390 0 -8 -405 -716 -448 -783 l-15 -22 -447 2 -447 3
-145 252 c-138 239 -145 250 -148 214 -3 -33 13 -66 123 -256 l125 -217 -125
-216 c-105 -181 -125 -221 -125 -256 l0 -41 33 53 c17 29 79 136 137 237 l105
184 459 -2 460 -2 84 -145 c271 -467 363 -631 360 -643 -2 -7 -104 -187 -227
-400 l-223 -387 -455 2 -455 3 -136 237 c-130 225 -137 234 -140 198 -3 -33
14 -66 125 -259 l128 -221 475 0 475 0 225 -388 226 -387 -233 -389 c-209
-350 -230 -391 -215 -402 13 -9 19 -9 24 -1 4 7 108 180 230 385 l222 372 451
0 450 -1 235 -404 c129 -223 238 -405 241 -405 4 0 11 6 17 13 9 10 -43 107
-218 407 -127 216 -230 399 -230 406 0 11 -85 14 -462 16 l-462 3 -234 400
c-129 222 -231 407 -229 417 3 9 101 183 218 387 l214 371 465 0 465 0 230
-400 229 -400 465 -2 464 -3 228 -390 c125 -214 229 -394 231 -398 4 -9 38 2
38 12 0 4 -99 178 -221 387 -122 208 -223 384 -226 391 -3 7 98 190 223 408
l229 395 458 0 457 0 26 -42 c199 -334 425 -735 421 -748 -2 -9 -102 -180
-221 -381 -198 -331 -216 -365 -200 -376 16 -12 39 24 247 372 l230 385 458 0
c401 0 459 2 459 15 0 13 -58 15 -463 15 l-464 0 -227 391 -228 390 73 127
c41 70 144 249 230 397 l157 270 443 3 444 2 51 -87 c28 -49 133 -231 234
-405 l183 -318 472 0 473 0 226 -384 c124 -211 228 -390 232 -399 3 -10 -64
-132 -182 -329 -303 -506 -274 -453 -253 -466 17 -11 40 25 246 371 l228 382
473 3 c410 2 472 4 472 17 0 13 -60 15 -464 15 l-464 0 -234 397 c-128 218
-234 404 -236 413 -2 12 248 454 422 748 l26 42 459 0 459 0 233 -400 234
-400 477 0 c418 0 478 2 478 15 0 13 -58 15 -462 15 l-463 1 -223 383 -223
384 57 99 c31 54 107 186 169 293 62 107 141 245 177 305 l63 110 445 2 445 2
213 -367 c269 -466 249 -433 267 -426 8 4 15 11 15 18 0 6 -105 190 -233 409
l-234 398 -454 -1 -455 0 -30 52 c-274 474 -377 652 -402 694 l-30 51 222 384
222 384 450 2 449 3 231 -403 232 -402 467 -5 468 -5 234 -400 c133 -228 239
-399 246 -397 7 2 15 6 19 10 4 4 -95 180 -219 392 -124 212 -227 392 -230
402 -4 15 89 182 364 656 l95 162 464 0 c404 0 464 2 464 15 0 13 -61 15 -471
17 l-470 3 -95 165 c-53 91 -152 263 -220 382 l-125 217 137 238 c76 131 182
316 237 411 l99 172 455 -2 455 -3 233 -400 c128 -219 237 -400 241 -402 5 -1
15 1 22 6 10 6 -46 109 -219 407 -127 219 -236 404 -241 409 -6 6 -187 12
-485 15 l-475 5 -197 340 c-174 301 -200 340 -223 343 -25 3 -12 -22 179 -353
l206 -357 -21 -41 c-12 -23 -87 -154 -167 -292 -80 -137 -171 -296 -202 -352
l-58 -103 -470 0 -470 0 -224 389 c-124 214 -224 392 -224 396 0 3 91 163 202
354 110 192 201 351 201 355 0 3 -10 6 -22 6 -18 -1 -32 -17 -64 -73 -22 -40
-110 -192 -195 -339 l-154 -268 -448 3 -448 2 -194 335 c-171 295 -197 335
-221 338 -14 2 -24 0 -21 -5 6 -11 161 -278 286 -496 l103 -178 -93 -162 c-51
-89 -155 -268 -230 -397 l-137 -235 -465 -3 -465 -2 -218 377 c-120 208 -222
385 -227 393 -6 11 39 98 173 330 100 173 191 330 202 348 l21 34 -28 -4 c-24
-3 -47 -37 -215 -328 l-189 -325 -456 0 -457 0 -150 260 c-242 420 -226 395
-253 395 l-24 0 18 -32 c11 -18 94 -163 186 -322 92 -159 171 -299 177 -312 9
-20 -17 -70 -218 -418 l-228 -396 -455 2 -455 3 -232 400 c-130 222 -231 407
-228 415 3 8 83 150 178 315 220 381 202 345 173 345 -20 0 -49 -45 -212 -330
l-190 -330 -455 1 -455 0 -189 329 c-165 286 -193 330 -213 330 -29 0 -49 40
185 -365 102 -176 185 -325 185 -330 0 -6 -94 -175 -210 -375 -116 -201 -216
-375 -222 -387 l-12 -23 -473 0 -473 0 -218 377 c-120 207 -218 381 -218 387
0 10 357 634 389 681 19 27 17 35 -8 35 -20 0 -53 -52 -218 -340 l-195 -339
-460 -1 -461 0 -122 213 c-276 480 -265 462 -294 465 -27 3 -26 0 50 -130z
m4143 -641 c389 -672 421 -730 413 -747 -5 -9 -108 -189 -229 -398 l-220 -382
-457 0 -456 0 -228 393 c-125 215 -227 397 -227 402 0 8 361 642 435 763 l20
32 456 0 457 0 36 -63z m2900 -184 c78 -137 182 -317 231 -401 49 -84 87 -156
85 -160 -2 -4 -104 -181 -227 -394 l-223 -388 -453 0 -453 0 -17 33 c-9 17
-107 186 -216 375 -110 189 -204 354 -210 367 -10 21 10 60 187 367 109 189
212 367 229 396 l31 52 446 0 447 0 143 -247z m-5545 -163 c123 -212 223 -391
224 -398 0 -7 -100 -186 -222 -398 l-223 -384 -454 2 -454 3 -223 385 c-123
212 -223 390 -223 395 -1 8 302 538 423 743 l26 42 451 -2 451 -3 224 -385z
m8357 145 c77 -132 179 -309 228 -393 l88 -152 -223 -388 -224 -387 -445 -3
-445 -2 -231 400 c-127 220 -231 404 -231 410 0 6 98 179 217 386 l216 374
456 -2 455 -3 139 -240z m-6936 -935 c122 -212 223 -390 223 -397 0 -10 -116
-214 -369 -650 l-83 -143 -457 0 -458 0 -215 373 c-119 204 -221 382 -227 395
-11 20 7 55 183 360 107 185 210 363 230 395 l35 57 457 -2 458 -3 223 -385z
m2644 290 c197 -333 400 -693 397 -704 -2 -8 -102 -185 -223 -395 l-220 -381
-470 0 -471 0 -214 373 c-118 204 -215 381 -215 393 0 11 103 199 230 417
l229 397 450 -2 451 -3 56 -95z m3001 -299 l229 -394 -228 -393 -227 -394
-466 0 -465 0 -228 393 -227 393 204 355 c113 195 216 373 230 397 l26 42 462
-2 462 -3 228 -394z m2783 -15 c124 -214 225 -393 225 -398 0 -8 -236 -423
-400 -703 l-47 -80 -459 -2 -459 -2 -113 197 c-62 108 -163 285 -226 394
l-114 196 38 64 c20 34 115 198 210 363 95 165 181 315 192 333 l20 32 454 -2
455 -3 224 -389z m-7055 -758 c112 -194 213 -371 226 -393 l23 -40 -222 -385
-223 -385 -465 -3 -465 -2 -221 384 -222 385 227 395 227 395 456 1 456 0 203
-352z m2646 320 c9 -18 106 -187 215 -376 110 -188 199 -348 199 -355 0 -7
-103 -190 -229 -407 l-228 -395 -449 -2 -449 -3 -220 382 c-121 209 -220 389
-219 398 0 9 101 190 223 403 l224 387 458 0 458 0 17 -32z m-5423 -363 c121
-209 220 -385 220 -390 0 -10 -130 -239 -364 -640 l-87 -150 -441 -3 -440 -2
-14 22 c-88 141 -442 768 -442 783 0 11 97 188 215 393 l215 372 459 -2 459
-3 220 -380z m1199 -467 c429 -742 428 -740 416 -762 -23 -43 -381 -662 -404
-699 l-24 -37 -472 2 -472 3 -219 378 -219 378 198 342 c109 188 213 368 231
400 l34 57 447 0 448 0 36 -62z m3016 -330 l224 -388 -123 -212 c-67 -117
-171 -296 -230 -398 l-107 -185 -447 0 -446 0 -226 390 c-124 215 -227 397
-230 406 -4 13 94 187 399 712 l39 67 461 -2 462 -3 224 -387z m2835 -3 l227
-395 -91 -158 c-50 -86 -152 -264 -228 -394 l-136 -238 -475 0 -476 0 -50 88
c-28 48 -130 225 -228 395 l-178 307 215 373 c118 204 220 382 226 395 l12 22
477 0 477 0 228 -395z m-4389 -528 c38 -67 141 -245 228 -395 87 -150 158
-276 158 -280 0 -4 -103 -185 -229 -402 l-229 -395 -453 -3 -454 -2 -232 401
c-212 367 -231 403 -219 423 7 11 111 191 231 399 l218 377 456 0 456 -1 69
-122z m2944 -284 l230 -398 -29 -50 c-16 -27 -118 -204 -226 -393 l-198 -342
-459 2 -459 3 -225 390 -225 389 28 51 c15 27 118 206 228 398 l201 347 452 0
452 0 230 -397z m-5745 227 c49 -85 150 -259 223 -386 l133 -232 -195 -338
c-108 -187 -212 -367 -231 -401 l-35 -63 -443 0 -443 0 -231 400 -232 400 187
322 c103 178 204 353 226 391 l39 67 456 -2 456 -3 90 -155z m1336 -663 c13
-23 118 -205 233 -405 l210 -362 -30 -53 c-46 -80 -311 -540 -372 -644 l-54
-93 -457 0 -457 0 -232 401 -232 402 18 32 c11 18 114 197 229 398 l210 366
455 1 455 0 24 -43z"/>
</g>
</svg>
